<svg width="512" height="512" viewBox="0 0 512 512" fill="none" xmlns="http://www.w3.org/2000/svg" xmlns:xlink="http://www.w3.org/1999/xlink" class=""><rect id="r9" width="512" height="512" x="0" y="0" rx="128" fill="url(#ra)" stroke="#FFFFFF" stroke-width="0" stroke-opacity="100%" paint-order="stroke"></rect><clipPath id="clip"><use xlink:href="#r9"></use></clipPath><defs><linearGradient id="ra" gradientUnits="userSpaceOnUse" gradientTransform="rotate(-45)" style="transform-origin: center center;"><stop stop-color="#1E9AAF"></stop><stop offset="1" stop-color="#47FF00"></stop></linearGradient><radialGradient id="rb" cx="0" cy="0" r="1" gradientUnits="userSpaceOnUse" gradientTransform="translate(256) rotate(90) scale(512)"><stop stop-color="white"></stop><stop offset="1" stop-color="white" stop-opacity="0"></stop></radialGradient></defs><svg xmlns="http://www.w3.org/2000/svg" fill="none" viewBox="0 0 16 16" width="260" height="260" x="36" y="216" style="color: rgb(0, 96, 147);" alignment-baseline="middle"><path fill="currentColor" fill-rule="evenodd" d="M14.879.5H7.657c0 1.8 1.458 3.257 3.257 3.257h1.329v1.286c0 1.8 1.457 3.257 3.257 3.257V1.121A.622.622 0 0 0 14.879.5ZM11.3 4.1H4.078c0 1.8 1.457 3.257 3.257 3.257h1.329v1.286c0 1.8 1.457 3.257 3.258 3.257V4.721A.622.622 0 0 0 11.3 4.1ZM.5 7.7h7.222a.623.623 0 0 1 .621.622V15.5a3.256 3.256 0 0 1-3.257-3.258v-1.285h-1.33A3.256 3.256 0 0 1 .5 7.7Z" clip-rule="evenodd"></path></svg></svg>